<svg xmlns="http://www.w3.org/2000/svg" xmlns:xlink="http://www.w3.org/1999/xlink" version="1.1" x="0px" y="0px" viewBox="0 0 1000 1250" style="enable-background:new 0 0 1000 1000;" xml:space="preserve"><g><path d="M892.1,358c-3.8,31.1-41.1,43.9-41.1,43.9l-10.9-32c19.4-6.4,19.1-18.3,18.6-21.5   c-21.5-3.9-42.8-4.3-53.1-2l-524,118.9l-77.5-95.6c-17.7-21.8-47-4.6-40.7,24l26.3,120.5l3.3,15.2c0.5,1.3,1.1,2.5,1.7,3.7   c3.3,6.5,8.2,12,14.7,15.4l78.2,40L484,543.9l-12.7,78.9c-0.7,4.2,4.4,7.1,10.2,5.8l12.5-2.8c7.8-1.8,14.8-5.6,19.4-10.7l89.5-98.1   l229.5-52.1c11.9-2.7,35.4-15,55-30.8c19.6-15.7,35.3-34.8,31.6-51.1C916.6,372.2,906,364,892.1,358z M385.4,487.5   c0.6,2.5-1,5-3.5,5.6l-8.4,1.9c-2.5,0.6-5-1-5.6-3.5l-1.9-8.4c-0.6-2.5,1-5,3.5-5.6l8.4-1.9c2.5-0.6,5,1,5.6,3.5L385.4,487.5z    M408.7,482.3c0.6,2.5-1,5-3.5,5.6l-8.4,1.9c-2.5,0.6-5-1-5.6-3.5l-1.9-8.4c-0.6-2.5,1-5,3.5-5.6l8.4-1.9c2.5-0.6,5,1,5.6,3.5   L408.7,482.3z M431.9,477c0.6,2.5-1,5-3.5,5.6l-8.4,1.9c-2.5,0.6-5-1-5.6-3.5l-1.9-8.4c-0.6-2.5,1-5,3.5-5.6l8.4-1.9   c2.5-0.6,5,1,5.6,3.5L431.9,477z M455.2,471.7c0.6,2.5-1,5-3.5,5.6l-8.4,1.9c-2.5,0.6-5-1-5.6-3.5l-1.9-8.4c-0.6-2.5,1-5,3.5-5.6   l8.4-1.9c2.5-0.6,5,1,5.6,3.5L455.2,471.7z M478.5,466.4c0.6,2.5-1,5-3.5,5.6l-8.4,1.9c-2.5,0.6-5-1-5.6-3.5l-1.9-8.4   c-0.6-2.5,1-5,3.5-5.6l8.4-1.9c2.5-0.6,5,1,5.6,3.5L478.5,466.4z M501.8,461.1c0.6,2.5-1,5-3.5,5.6l-8.4,1.9c-2.5,0.6-5-1-5.6-3.5   l-1.9-8.4c-0.6-2.5,1-5,3.5-5.6l8.4-1.9c2.5-0.6,5,1,5.6,3.5L501.8,461.1z M525.1,455.8c0.6,2.5-1,5-3.5,5.6l-8.4,1.9   c-2.5,0.6-5-1-5.6-3.5l-1.9-8.4c-0.6-2.5,1-5,3.5-5.6l8.4-1.9c2.5-0.6,5,1,5.6,3.5L525.1,455.8z M594.9,440c0.6,2.5-1,5-3.5,5.6   l-8.4,1.9c-2.5,0.6-5-1-5.6-3.5l-1.9-8.4c-0.6-2.5,1-5,3.5-5.6l8.4-1.9c2.5-0.6,5,1,5.6,3.5L594.9,440z M618.2,434.7   c0.6,2.5-1,5-3.5,5.6l-8.4,1.9c-2.5,0.6-5-1-5.6-3.5l-1.9-8.4c-0.6-2.5,1-5,3.5-5.6l8.4-1.9c2.5-0.6,5,1,5.6,3.5L618.2,434.7z    M641.5,429.4c0.6,2.5-1,5-3.5,5.6l-8.4,1.9c-2.5,0.6-5-1-5.6-3.5l-1.9-8.4c-0.6-2.5,1-5,3.5-5.6l8.4-1.9c2.5-0.6,5,1,5.6,3.5   L641.5,429.4z M664.8,424.1c0.6,2.5-1,5-3.5,5.6l-8.4,1.9c-2.5,0.6-5-1-5.6-3.5l-1.9-8.4c-0.6-2.5,1-5,3.5-5.6l8.4-1.9   c2.5-0.6,5,1,5.6,3.5L664.8,424.1z M688.1,418.8c0.6,2.5-1,5-3.5,5.6l-8.4,1.9c-2.5,0.6-5-1-5.6-3.5l-1.9-8.4c-0.6-2.5,1-5,3.5-5.6   l8.4-1.9c2.5-0.6,5,1,5.6,3.5L688.1,418.8z M711.4,413.6c0.6,2.5-1,5-3.5,5.6l-8.4,1.9c-2.5,0.6-5-1-5.6-3.5l-1.9-8.4   c-0.6-2.5,1-5,3.5-5.6l8.4-1.9c2.5-0.6,5,1,5.6,3.5L711.4,413.6z M734.6,408.3c0.6,2.5-1,5-3.5,5.6l-8.4,1.9c-2.5,0.6-5-1-5.6-3.5   l-1.9-8.4c-0.6-2.5,1-5,3.5-5.6l8.4-1.9c2.5-0.6,5,1,5.6,3.5L734.6,408.3z M757.9,403c0.6,2.5-1,5-3.5,5.6l-8.4,1.9   c-2.5,0.6-5-1-5.6-3.5l-1.9-8.4c-0.6-2.5,1-5,3.5-5.6l8.4-1.9c2.5-0.6,5,1,5.6,3.5L757.9,403z M781.2,397.7c0.6,2.5-1,5-3.5,5.6   l-8.4,1.9c-2.5,0.6-5-1-5.6-3.5l-1.9-8.4c-0.6-2.5,1-5,3.5-5.6l8.4-1.9c2.5-0.6,5,1,5.6,3.5L781.2,397.7z"/><path d="M468.3,414l152.6-34.6l-177.3-71.8c-6.4-2.6-14.4-3-22.2-1.3l-12.5,2.8c-5.8,1.3-9.1,6.1-6.7,9.6L468.3,414z   "/><path d="M453.3,599.3c0,0-1.3,0.5-3.9,1.4c-2.5,0.9-6.2,2.2-11,3.9c-4.7,1.6-10.5,3.6-17.1,5.7   c-6.6,2.1-14.1,4.6-22.3,7.1c-4.1,1.3-8.4,2.6-12.8,3.9c-4.4,1.3-9,2.7-13.7,4.1c-9.4,2.8-19.4,5.6-29.7,8.4   c-10.3,2.8-21.1,5.5-32,8.2c-10.9,2.7-22,5.5-33.1,8.3c-22.1,5.6-44.3,11.3-65,16.5c-10.4,2.6-20.4,5.2-29.9,7.6   c-9.5,2.4-18.5,4.6-26.8,6.7c-33.3,8.3-55.4,13.8-55.4,13.8l-0.2-0.9c0,0,21.9-6.4,54.8-16.1c8.2-2.4,17.1-5,26.6-7.7   c9.4-2.7,19.4-5.6,29.7-8.5c20.6-5.9,42.6-12.2,64.5-18.5c11-3.2,21.9-6.4,32.7-9.5c10.8-3.2,21.4-6.3,31.7-9.1   c10.3-2.8,20.4-5.4,29.9-7.7c4.8-1.2,9.4-2.3,13.9-3.4c4.5-1.1,8.8-2.1,13-3.1c8.3-2,16-3.6,22.8-5.1c6.8-1.5,12.8-2.7,17.7-3.7   c4.9-1,8.8-1.7,11.4-2.2c2.6-0.5,4.1-0.7,4.1-0.7L453.3,599.3z"/><path d="M266.2,593.8c0,0-2.7,1.4-7.6,3.5c-2.4,1.1-5.4,2.3-8.9,3.6c-3.4,1.4-7.3,2.9-11.6,4.4   c-4.3,1.6-8.9,3.2-13.8,4.8c-4.9,1.7-10.1,3.3-15.6,4.8c-5.4,1.5-11.1,3-16.9,4.4c-5.8,1.4-11.6,2.9-17.5,4.4   c-11.7,3-23.4,6.1-34.3,8.9c-5.5,1.4-10.8,2.7-15.8,4c-5,1.3-9.8,2.4-14.2,3.5c-8.8,2.2-16.1,4-21.2,5.3c-5.1,1.2-8.1,2-8.1,2   l-0.3-0.9c0,0,2.9-1,7.9-2.6c5-1.7,12.2-4,20.8-6.9c4.3-1.4,9-2.9,13.9-4.6c4.9-1.6,10.1-3.3,15.5-5c10.8-3.5,22.3-7.1,33.8-10.8   c5.8-1.8,11.5-3.7,17.1-5.6c5.6-1.9,11.2-3.7,16.6-5.3c5.4-1.6,10.7-3,15.8-4.2c5-1.2,9.8-2.3,14.3-3.3c4.4-1,8.5-1.8,12.1-2.5   c3.6-0.7,6.8-1.2,9.4-1.6c5.3-0.8,8.3-1.1,8.3-1.1L266.2,593.8z"/></g></svg>